<?xml version="1.0" encoding="utf-8"?>
<!-- Generator: Adobe Illustrator 19.2.0, SVG Export Plug-In . SVG Version: 6.00 Build 0)  -->
<svg version="1.1" id="Layer_1" xmlns="http://www.w3.org/2000/svg" xmlns:xlink="http://www.w3.org/1999/xlink" x="0px" y="0px"
	 viewBox="0 0 565.4 237.4" style="enable-background:new 0 0 565.4 237.4;" xml:space="preserve">
<style type="text/css">
	.st0{fill:#FFFFFF;}
</style>
<g>
	<path class="st0" d="M285.6,0c-0.3,0.3-0.6,0.5-0.8,0.7c-13.2,11.4-26.4,22.8-39.5,34.2c-24.8,21.4-49.5,42.8-74.3,64.3
		c-0.8,0.7-1.6,1-2.7,1c-55.5,0-111,0-166.5,0c-0.5,0-1.1,0-1.8,0c0.2,0.4,0.3,0.7,0.4,0.9c6.2,13.1,12.4,26.2,18.7,39.3
		c0.6,1.2,1.6,2.3,2.6,3c2.7,2,6.5,1.6,9-0.5c2.6-2.2,3.4-5.8,1.9-8.9c-2.6-5.5-5.2-11-7.8-16.5c-0.4-0.7-0.7-1.5-1.1-2.4
		c0.7,0,1.2,0,1.7,0c49.6,0,99.2,0,148.8,0c0.9,0,1.6-0.2,2.4-0.9c8.9-7.7,17.8-15.4,26.7-23.1c26.5-22.9,52.9-45.8,79.4-68.7
		c1-0.9,2-1.7,3-2.6c0.3,0.3,0.6,0.5,0.8,0.7c13.9,12,27.8,24,41.6,36c22.1,19.1,44.3,38.3,66.4,57.5c0.8,0.7,1.6,1.1,2.8,1.1
		c47.8,0,95.5,0,143.3,0c0.5,0,1,0,1.7,0c-0.3,0.6-0.4,1.1-0.6,1.5c-2.7,5.7-5.4,11.3-8.1,17c-0.9,1.8-1.1,3.7-0.6,5.6
		c0.8,3.1,3.4,5.2,6.5,5.5c3.2,0.3,6.1-1.3,7.5-4.3c6.2-13,12.4-26,18.5-39.1c0.1-0.3,0.3-0.6,0.4-1.1c-0.7,0-1.3,0-1.8,0
		c-53.8,0-107.5,0-161.3,0c-0.9,0-1.6-0.3-2.4-0.9c-7.4-6.4-14.8-12.8-22.2-19.2c-26-22.5-52-45-78-67.5
		C295.3,8.4,290.5,4.2,285.6,0z M390.9,162.1c0,24.8,0,49.4,0,74.1c0.3,0,0.4,0.1,0.6,0.1c7,0,14,0.2,21,0
		c9.1-0.2,14.9-5.1,16.6-13.8c0.9-4.3,0.8-8.6,0.4-12.9c-0.5-6.1-3.1-10.7-9.2-13.1c0.1-0.2,0.2-0.3,0.4-0.4c2.6-1.9,4-4.5,4.7-7.5
		c0.9-4,0.7-8,0.3-12c-0.2-2.5-1-4.9-2.3-7.1c-3.2-5.2-8-7.4-13.9-7.5c-5.9-0.1-11.8,0-17.6,0C391.5,162.1,391.2,162.1,390.9,162.1z
		 M278,236.3c0-24.9,0-49.5,0-74.2c-2.5,0-4.9,0-7.3,0c0,18.6,0,37.1,0,55.7c-0.3-0.7-0.5-1.3-0.7-1.9c-3.5-8.1-6.9-16.2-10.4-24.3
		c-4.1-9.5-8.2-19.1-12.4-28.6c-0.2-0.4-0.5-1-0.8-1c-2.1-0.1-4.2,0-6.3,0c0,24.8,0,49.5,0,74.2c2.5,0,5,0,7.3,0
		c0-18.7,0-37.2,0-55.8c0.2,0.4,0.3,0.8,0.4,1.2c0.8,2.2,1.6,4.4,2.5,6.5c3.4,7.8,6.8,15.5,10.1,23.3c3.5,8,7,16,10.5,24
		c0.2,0.4,0.6,0.9,0.9,0.9C273.9,236.3,275.9,236.3,278,236.3z M230.2,236.3c-0.2-0.4-0.3-0.7-0.4-0.9c-2.8-5.6-5.6-11.2-8.5-16.8
		c-2-3.9-3.6-8.1-6.7-11.5c5-2.5,7.8-6.7,8.7-12c1.1-6.4,1.2-12.9-0.1-19.3c-1.8-9-7.8-13.7-17-13.7c-5.4,0-10.7,0-16.1,0
		c-0.4,0-0.8,0-1.2,0c0,24.9,0,49.5,0,74.2c2.7,0,5.3,0,8.1,0c0-9.2,0-18.3,0-27.4c2,0,3.8,0.1,5.6,0c3.5-0.3,5.6,1.3,7.1,4.4
		c1.4,2.9,2.9,5.7,4.3,8.6c2.3,4.6,4.6,9.1,7,13.7c0.2,0.4,0.6,0.9,0.9,0.9C224.7,236.3,227.4,236.3,230.2,236.3z M383,236.3
		c-0.2-0.5-0.3-0.7-0.4-0.9c-5-9.5-9.2-19.4-15-28.5c4.9-2.5,7.6-6.7,8.6-12c1.1-6.3,1.2-12.7-0.1-19c-1.8-9.2-7.7-13.9-17.2-13.9
		c-5.3,0-10.6,0-15.8,0c-0.4,0-0.8,0-1.3,0c0,24.8,0,49.5,0,74.3c2.3,0,4.5,0,6.8,0c1,0,1.3-0.3,1.3-1.3c0-8.3,0-16.6,0-24.8
		c0-0.5,0-0.9,0-1.4c2.1,0,4,0.1,5.8,0c3.3-0.2,5.3,1.3,6.8,4.1c3.8,7.5,7.6,15,11.4,22.4c0.2,0.4,0.7,1,1,1
		C377.6,236.3,380.2,236.3,383,236.3z M503.1,199.2C503.1,199.2,503.1,199.2,503.1,199.2c0-5.7,0.1-11.4-0.1-17
		c-0.1-4-1.1-7.8-3.1-11.2c-4.2-7.4-10.9-10.2-19.1-9.9c-5,0.2-9.6,1.8-13.2,5.4c-4.5,4.4-6.4,10-6.5,16c-0.2,11-0.1,22,0,33
		c0,1.9,0.3,3.9,0.7,5.8c1.6,7,5.4,12.3,12.4,14.8c3.6,1.3,7.4,1.5,11.2,1.1c6.6-0.8,11.7-4,14.8-10c1.9-3.7,2.7-7.7,2.8-11.8
		C503.2,210,503.1,204.6,503.1,199.2z M160.8,162.1c-2,0-3.9,0-5.9,0c-0.9,0-1.1,0.3-1.3,1.1c-1.1,4.4-2.2,8.8-3.3,13.2
		c-4.4,17.3-8.8,34.5-13.1,51.8c-0.7,2.7-1.3,5.3-2,8.2c2.7,0,5.2,0,7.8,0c0.3,0,0.6-0.5,0.7-0.9c0.6-2.2,1.1-4.4,1.6-6.6
		c0.7-3,1.4-6,2.1-9c0.2,0,0.3-0.1,0.5-0.1c6.2,0,12.4,0,18.6,0c0.7,0,0.9,0.3,1,0.9c1,4.4,2,8.8,3,13.2c0.6,2.6,0.6,2.6,3.3,2.6
		c1.9,0,3.8,0,5.8,0C173.4,211.5,167.1,186.8,160.8,162.1z M289.1,236.3c2.7,0,5.3,0,7.9,0c0.2,0,0.5-0.4,0.6-0.7
		c0.3-1.1,0.5-2.2,0.8-3.3c1-4.2,2-8.4,3-12.6c6.6,0,13.2,0,19.8,0c0.1,0.4,0.2,0.8,0.3,1.1c1.1,4.8,2.2,9.6,3.3,14.4
		c0.1,0.4,0.4,1,0.7,1.1c2.6,0.1,5.3,0,8,0c-0.1-0.5-0.2-0.9-0.3-1.3c-3.2-12.5-6.3-25.1-9.5-37.6c-2.9-11.3-5.7-22.7-8.6-34
		c-0.2-0.9-0.4-1.4-1.5-1.3c-1.5,0.1-3,0.1-4.6,0c-1-0.1-1.3,0.3-1.5,1.2c-5.3,21.1-10.7,42.3-16,63.4
		C290.7,229.8,289.9,233,289.1,236.3z M103.1,162.1c-14.1,0-28,0-41.9,0c0,2.8,0,5.5,0,8.3c5.5,0,11,0,16.5,0c0,22,0,43.9,0,65.7
		c2.8,0,5.5,0,8.3,0c0-21.9,0-43.8,0-65.8c5.3,0,10.4,0,15.6,0C102.1,167.6,102.6,164.9,103.1,162.1z M118.1,162.1
		c0,0.7,0,1.2,0,1.8c0,18.7,0,37.3,0,56c0,1-0.1,1.9-0.2,2.9c-0.4,4-2.5,6.2-6.2,6.4c-0.9,0-1.8-0.1-2.7-0.2
		c-2.6-0.3-5.1-0.7-7.8-1.1c-0.4,2.7-0.7,5.4-1,8.1c3.7,0.5,7.3,1.2,10.9,1.4c7.4,0.5,12.6-3.4,14.4-10.5c0.4-1.8,0.7-3.6,0.7-5.5
		c0-19.3,0-38.6,0-57.9c0-0.4,0-0.9,0-1.3C123.4,162.1,120.9,162.1,118.1,162.1z M441.5,162.1c0,24.8,0,49.4,0,74.1c2.7,0,5.4,0,8,0
		c0-24.7,0-49.4,0-74.1C446.9,162.1,444.3,162.1,441.5,162.1z M481,154.5c3.5-3.9,6.8-7.7,10.2-11.5c-1.6-1.5-3.2-2.9-4.8-4.3
		c-3.2,4.1-6.3,8.1-9.5,12.1C478.3,152.1,479.6,153.3,481,154.5z M444.5,154.5c3.4-3.9,6.8-7.7,10.2-11.5c-1.6-1.5-3.2-2.9-4.8-4.3
		c-3.2,4.1-6.3,8.1-9.5,12.2C441.8,152.1,443.1,153.3,444.5,154.5z"/>
	<path d="M285.6,0c4.9,4.2,9.7,8.4,14.5,12.5c26,22.5,52,45,78,67.5c7.4,6.4,14.8,12.8,22.2,19.2c0.7,0.6,1.4,0.9,2.4,0.9
		c53.8,0,107.5,0,161.3,0c0.6,0,1.1,0,1.8,0c-0.2,0.4-0.3,0.8-0.4,1.1c-6.2,13-12.3,26.1-18.5,39.1c-1.4,3-4.3,4.6-7.5,4.3
		c-3.2-0.3-5.7-2.4-6.5-5.5c-0.5-1.9-0.3-3.8,0.6-5.6c2.7-5.7,5.4-11.3,8.1-17c0.2-0.4,0.4-0.9,0.6-1.5c-0.7,0-1.2,0-1.7,0
		c-47.8,0-95.5,0-143.3,0c-1.1,0-1.9-0.3-2.8-1.1c-22.1-19.2-44.2-38.3-66.4-57.5c-13.9-12-27.8-24-41.6-36
		c-0.2-0.2-0.5-0.4-0.8-0.7c-1,0.9-2,1.7-3,2.6c-26.5,22.9-52.9,45.8-79.4,68.7c-8.9,7.7-17.8,15.4-26.7,23.1
		c-0.7,0.6-1.4,0.9-2.4,0.9c-49.6,0-99.2,0-148.8,0c-0.5,0-1,0-1.7,0c0.4,0.9,0.7,1.6,1.1,2.4c2.6,5.5,5.2,11,7.8,16.5
		c1.5,3.2,0.7,6.8-1.9,8.9c-2.5,2.2-6.3,2.5-9,0.5c-1.1-0.8-2.1-1.9-2.6-3c-6.3-13.1-12.5-26.2-18.7-39.3c-0.1-0.2-0.2-0.5-0.4-0.9
		c0.7,0,1.2,0,1.8,0c55.5,0,111,0,166.5,0c1.1,0,1.9-0.3,2.7-1c24.7-21.4,49.5-42.9,74.3-64.3c13.2-11.4,26.4-22.8,39.5-34.2
		C285.1,0.5,285.3,0.3,285.6,0z"/>
	<path d="M390.9,162.1c0.4,0,0.6,0,0.9,0c5.9,0,11.8-0.1,17.6,0c5.9,0.1,10.7,2.3,13.9,7.5c1.3,2.2,2.1,4.6,2.3,7.1
		c0.4,4,0.6,8.1-0.3,12c-0.7,3-2.1,5.6-4.7,7.5c-0.1,0.1-0.2,0.2-0.4,0.4c6,2.3,8.6,7,9.2,13.1c0.4,4.3,0.5,8.6-0.4,12.9
		c-1.8,8.7-7.5,13.5-16.6,13.8c-7,0.2-14,0-21,0c-0.2,0-0.4,0-0.6-0.1C390.9,211.5,390.9,186.9,390.9,162.1z M399,228
		c0.5,0,0.8,0.1,1.2,0c4.2,0,8.5,0.2,12.7-0.2c5-0.4,8-3.5,8.4-8.5c0.2-2.6,0.3-5.2,0.1-7.8c-0.4-6.2-4-9.4-10.2-9.4
		c-3.7,0-7.4,0-11,0c-0.3,0-0.7,0-1.1,0.1C399,210.8,399,219.3,399,228z M399,170.3c0,8,0,16,0,24c3,0,5.9,0,8.8,0
		c0.5,0,1,0,1.6-0.1c4.7-0.5,7.6-3.1,8.1-7.8c0.3-2.8,0.3-5.6,0-8.4c-0.5-4.8-3.1-7.4-8-7.7C406,170.1,402.6,170.3,399,170.3z"/>
	<path d="M278,236.3c-2.1,0-4.1,0-6.2,0c-0.3,0-0.8-0.5-0.9-0.9c-3.5-8-7-16-10.5-24c-3.4-7.8-6.8-15.5-10.1-23.3
		c-0.9-2.1-1.7-4.3-2.5-6.5c-0.2-0.4-0.3-0.8-0.4-1.2c0,18.6,0,37.2,0,55.8c-2.3,0-4.8,0-7.3,0c0-24.7,0-49.3,0-74.2
		c2.1,0,4.2,0,6.3,0c0.3,0,0.7,0.6,0.8,1c4.1,9.5,8.3,19,12.4,28.6c3.5,8.1,7,16.2,10.4,24.3c0.2,0.6,0.4,1.2,0.7,1.9
		c0-18.7,0-37.2,0-55.7c2.4,0,4.8,0,7.3,0C278,186.8,278,211.4,278,236.3z"/>
	<path d="M230.2,236.3c-2.8,0-5.5,0-8.1,0c-0.3,0-0.7-0.5-0.9-0.9c-2.3-4.5-4.7-9.1-7-13.7c-1.4-2.8-2.9-5.7-4.3-8.6
		c-1.4-3-3.6-4.7-7.1-4.4c-1.8,0.2-3.7,0-5.6,0c0,9.2,0,18.3,0,27.4c-2.8,0-5.4,0-8.1,0c0-24.7,0-49.3,0-74.2c0.4,0,0.8,0,1.2,0
		c5.4,0,10.7,0,16.1,0c9.2,0,15.2,4.7,17,13.7c1.2,6.4,1.2,12.9,0.1,19.3c-0.9,5.3-3.7,9.5-8.7,12c3,3.4,4.6,7.6,6.7,11.5
		c2.9,5.6,5.7,11.2,8.5,16.8C229.9,235.6,230,235.9,230.2,236.3z M197.2,200.7c0.2,0.1,0.3,0.1,0.4,0.1c3.1,0,6.2,0,9.2,0
		c4.7,0,7.8-2.3,8.5-7c0.6-3.9,0.5-8,0.5-11.9c0-1.7-0.3-3.5-0.7-5.2c-1-3.7-3.7-5.9-7.6-6.2c-2.3-0.2-4.6-0.1-7-0.1
		c-1.1,0-2.2,0-3.4,0C197.2,180.5,197.2,190.5,197.2,200.7z"/>
	<path d="M383,236.3c-2.8,0-5.5,0-8.1,0c-0.4,0-0.8-0.6-1-1c-3.8-7.5-7.6-14.9-11.4-22.4c-1.4-2.8-3.5-4.3-6.8-4.1
		c-1.9,0.1-3.8,0-5.8,0c0,0.5,0,1,0,1.4c0,8.3,0,16.6,0,24.8c0,1-0.3,1.3-1.3,1.3c-2.2-0.1-4.5,0-6.8,0c0-24.8,0-49.4,0-74.3
		c0.4,0,0.8,0,1.3,0c5.3,0,10.6,0,15.8,0c9.4,0,15.4,4.6,17.2,13.9c1.2,6.3,1.1,12.7,0.1,19c-0.9,5.3-3.7,9.6-8.6,12
		c5.7,9.1,9.9,19,15,28.5C382.8,235.6,382.9,235.9,383,236.3z M350,170.5c0,10.1,0,20.1,0,30.3c3.4,0,6.7,0.1,10,0
		c4.4-0.1,7.4-2.5,8.2-6.8c1-5.4,1-10.9,0-16.3c-0.7-4-3.4-6.7-7.2-7C357.4,170.3,353.8,170.5,350,170.5z"/>
	<path d="M503.1,199.2c0,5.4,0,10.7,0,16.1c0,4.1-0.9,8.1-2.8,11.8c-3.1,6-8.2,9.2-14.8,10c-3.8,0.5-7.6,0.2-11.2-1.1
		c-7-2.5-10.8-7.8-12.4-14.8c-0.4-1.9-0.7-3.9-0.7-5.8c-0.1-11-0.2-22,0-33c0.1-6.1,2-11.6,6.5-16c3.7-3.6,8.2-5.2,13.2-5.4
		c8.2-0.3,14.9,2.5,19.1,9.9c2,3.5,3,7.3,3.1,11.2C503.2,187.9,503.1,193.6,503.1,199.2C503.1,199.2,503.1,199.2,503.1,199.2z
		 M469.2,199.2c0,5-0.1,10,0,15c0.1,2.2,0.4,4.4,1,6.5c1.5,5,5.5,8,10.7,8.4c5.7,0.4,10.1-2,12.4-6.8c1.3-2.6,1.8-5.3,1.8-8.1
		c0-10,0.1-19.9,0-29.9c0-2-0.4-4.2-1-6.1c-1.5-4.7-4.6-7.8-9.5-8.6c-5-0.8-9.3,0.4-12.5,4.6c-2.2,3-3,6.4-3,10
		C469.2,189.2,469.2,194.2,469.2,199.2z"/>
	<path d="M160.8,162.1c6.3,24.8,12.5,49.4,18.8,74.3c-2,0-3.9,0-5.8,0c-2.7,0-2.7,0-3.3-2.6c-1-4.4-2-8.8-3-13.2
		c-0.1-0.6-0.3-0.9-1-0.9c-6.2,0-12.4,0-18.6,0c-0.1,0-0.2,0-0.5,0.1c-0.7,3-1.4,6-2.1,9c-0.5,2.2-1,4.4-1.6,6.6
		c-0.1,0.3-0.5,0.8-0.7,0.9c-2.5,0.1-5.1,0-7.8,0c0.7-2.8,1.4-5.5,2-8.2c4.4-17.3,8.8-34.5,13.1-51.8c1.1-4.4,2.3-8.8,3.3-13.2
		c0.2-0.8,0.5-1.1,1.3-1.1C156.9,162.1,158.8,162.1,160.8,162.1z M149.3,212.3c5.5,0,10.8,0,16.2,0c-2.8-12.2-5.6-24.3-8.1-35.5
		C154.8,188,152.1,200.1,149.3,212.3z"/>
	<path d="M289.1,236.3c0.8-3.3,1.6-6.5,2.4-9.7c5.4-21.1,10.7-42.3,16-63.4c0.2-0.9,0.5-1.3,1.5-1.2c1.5,0.1,3,0.1,4.6,0
		c1.1-0.1,1.3,0.5,1.5,1.3c2.8,11.3,5.7,22.7,8.6,34c3.2,12.5,6.3,25.1,9.5,37.6c0.1,0.4,0.2,0.8,0.3,1.3c-2.8,0-5.4,0-8,0
		c-0.2,0-0.6-0.7-0.7-1.1c-1.1-4.8-2.2-9.6-3.3-14.4c-0.1-0.4-0.2-0.8-0.3-1.1c-6.6,0-13.2,0-19.8,0c-1,4.2-2,8.4-3,12.6
		c-0.3,1.1-0.5,2.2-0.8,3.3c-0.1,0.3-0.4,0.7-0.6,0.7C294.4,236.3,291.8,236.3,289.1,236.3z M319.5,212.3
		c-2.8-12.2-5.5-24.2-8.1-35.4c-2.6,11.3-5.4,23.3-8.2,35.4C308.7,212.3,314,212.3,319.5,212.3z"/>
	<path d="M103.1,162.1c-0.5,2.8-1,5.5-1.5,8.3c-5.2,0-10.3,0-15.6,0c0,22,0,43.8,0,65.8c-2.8,0-5.5,0-8.3,0c0-21.9,0-43.7,0-65.7
		c-5.6,0-11,0-16.5,0c0-2.9,0-5.6,0-8.3C75.1,162.1,89,162.1,103.1,162.1z"/>
	<path d="M118.1,162.1c2.8,0,5.4,0,8.1,0c0,0.5,0,0.9,0,1.3c0,19.3,0,38.6,0,57.9c0,1.8-0.2,3.7-0.7,5.5c-1.8,7.1-6.9,11-14.4,10.5
		c-3.6-0.2-7.2-0.9-10.9-1.4c0.4-2.7,0.7-5.4,1-8.1c2.7,0.4,5.2,0.8,7.8,1.1c0.9,0.1,1.8,0.3,2.7,0.2c3.6-0.2,5.7-2.4,6.2-6.4
		c0.1-1,0.2-1.9,0.2-2.9c0-18.7,0-37.3,0-56C118.1,163.3,118.1,162.8,118.1,162.1z"/>
	<path d="M441.5,162.1c2.7,0,5.3,0,8,0c0,24.7,0,49.4,0,74.1c-2.7,0-5.3,0-8,0C441.5,211.5,441.5,186.9,441.5,162.1z"/>
	<path d="M481,154.5c-1.4-1.3-2.7-2.4-4.1-3.7c3.2-4.1,6.3-8,9.5-12.1c1.6,1.4,3.2,2.8,4.8,4.3C487.8,146.9,484.4,150.7,481,154.5z"
		/>
	<path d="M444.5,154.5c-1.4-1.3-2.7-2.4-4.1-3.7c3.2-4.1,6.3-8.1,9.5-12.2c1.6,1.5,3.2,2.8,4.8,4.3
		C451.3,146.9,447.9,150.7,444.5,154.5z"/>
	<path class="st0" d="M399,228c0-8.7,0-17.2,0-25.8c0.4,0,0.7-0.1,1.1-0.1c3.7,0,7.4,0,11,0c6.3,0,9.8,3.2,10.2,9.4
		c0.2,2.6,0.2,5.2-0.1,7.8c-0.4,5-3.4,8.1-8.4,8.5c-4.2,0.3-8.5,0.2-12.7,0.2C399.8,228.1,399.4,228,399,228z"/>
	<path class="st0" d="M399,170.3c3.6,0,7-0.2,10.5,0c4.8,0.3,7.4,2.9,8,7.7c0.3,2.8,0.4,5.6,0,8.4c-0.5,4.7-3.4,7.3-8.1,7.8
		c-0.5,0.1-1,0.1-1.6,0.1c-2.9,0-5.8,0-8.8,0C399,186.2,399,178.3,399,170.3z"/>
	<path class="st0" d="M197.2,200.7c0-10.1,0-20.1,0-30.3c1.1,0,2.3,0,3.4,0c2.3,0,4.6,0,7,0.1c3.9,0.3,6.6,2.5,7.6,6.2
		c0.5,1.7,0.8,3.5,0.7,5.2c0,4,0,8-0.5,11.9c-0.7,4.6-3.8,6.9-8.5,7c-3.1,0-6.2,0-9.2,0C197.5,200.8,197.4,200.7,197.2,200.7z"/>
	<path class="st0" d="M350,170.5c3.8,0,7.4-0.2,11,0.1c3.8,0.3,6.5,3,7.2,7c1,5.4,1,10.9,0,16.3c-0.8,4.4-3.7,6.7-8.2,6.8
		c-3.3,0.1-6.6,0-10,0C350,190.6,350,180.5,350,170.5z"/>
	<path class="st0" d="M469.2,199.2c0-5,0-10,0-15c0-3.6,0.8-7.1,3-10c3.1-4.2,7.5-5.4,12.5-4.6c4.9,0.8,8,4,9.5,8.6
		c0.6,2,1,4.1,1,6.1c0.1,10,0.1,19.9,0,29.9c0,2.8-0.5,5.6-1.8,8.1c-2.4,4.8-6.7,7.1-12.4,6.8c-5.2-0.3-9.2-3.3-10.7-8.4
		c-0.6-2.1-0.9-4.3-1-6.5C469.1,209.2,469.2,204.2,469.2,199.2z"/>
	<path class="st0" d="M319.5,212.3c-5.5,0-10.8,0-16.3,0c2.8-12.1,5.6-24.1,8.2-35.4C313.9,188.2,316.7,200.2,319.5,212.3z"/>
</g>
</svg>
